# AST/ASF file generated using VICON BodyLanguage
# -----------------------------------------------
:version 1.10
:name VICON
:units
  mass 1.0
  length 0.45
  angle deg
:documentation
   .ast/.asf automatically generated from VICON data using
   VICON BodyBuilder and BodyLanguage model FoxedUp or BRILLIANT.MOD
:root
   order TX TY TZ RX RY RZ
   axis XYZ
   position 0 0 0  
   orientation 0 0 0 
:bonedata
  begin
     id 1 
     name lhipjoint
     direction 0.606768 -0.715223 0.346827 
     length 2.41543 
     axis 0 0 0  XYZ
  end
  begin
     id 2 
     name lfemur
     direction 0.34202 -0.939693 0  
     length 7.2778  
     axis 0 0 20  XYZ
    dof rx ry rz
    limits (-160.0 20.0)
           (-70.0 70.0)
           (-60.0 70.0)
  end
  begin
     id 3 
     name ltibia
     direction 0.34202 -0.939693 0   
     length 7.61811   
     axis 0 0 20   XYZ
    dof rx
    limits (-10.0 170.0)
  end
  begin
     id 4 
     name lfoot
     direction 0.0823924 -0.226371 0.97055   
     length 2.33618   
     axis -90 7.62852e-016 20   XYZ
    dof rx rz
    limits (-45.0 90.0)
           (-70.0 20.0)
  end
  begin
     id 5 
     name ltoes
     direction 1.53554e-011 -4.21934e-011 1   
     length 1.17015   
     axis -90 7.62852e-016 20   XYZ
    dof rx
    limits (-90.0 20.0)
  end
  begin
     id 6 
     name rhipjoint
     direction -0.6077 -0.714582 0.346516   
     length 2.4176  
     axis 0 0 0  XYZ 
  end
  begin
     id 7 
     name rfemur
     direction -0.34202 -0.939693 0   
     length 7.28127   
     axis 0 0 -20   XYZ
    dof rx ry rz
    limits (-160.0 20.0)
           (-70.0 70.0)
           (-70.0 60.0)
  end
  begin
     id 8 
     name rtibia
     direction -0.34202 -0.939693 0   
     length 7.77648   
     axis 0 0 -20   XYZ
    dof rx
    limits (-10.0 170.0)
 end
 begin
     id 9 
     name rfoot
     direction -0.0809463 -0.222398 0.97159   
     length 2.37533  
     axis -90 -7.62852e-016 -20   XYZ
    dof rx rz
    limits (-45.0 90.0)
           (-20.0 70.0)
  end
  begin
     id 10 
     name rtoes
     direction -1.53568e-011 -4.21714e-011 1   
     length 1.18972   
     axis -90 -7.62852e-016 -20   XYZ
    dof rx
    limits (-90.0 20.0)
  end
  begin
     id 11 
     name lowerback
     direction 0.010968 0.991932 -0.126297   
     length 2.21698   
     axis 0 0 0   XYZ
    dof rx ry rz
    limits (-20.0 45.0)
           (-30.0 30.0)
           (-30.0 30.0)
  end
  begin
     id 12 
     name upperback
     direction 0.0167007 0.997503 -0.0686276   
     length 2.22371   
     axis 0 0 0   XYZ
    dof rx ry rz
    limits (-20.0 45.0)
           (-30.0 30.0)
           (-30.0 30.0)
  end
  begin
     id 13 
     name thorax
     direction 0.0111721 0.999885 -0.0102878   
     length 2.25242   
     axis 0 0 0   XYZ
    dof rx ry rz
    limits (-20.0 45.0)
           (-30.0 30.0)
           (-30.0 30.0)
  end
  begin
     id 14 
     name lowerneck
     direction -0.0120265 0.990428 0.137508   
     length 1.57674   
     axis 0 0 0   XYZ
    dof rx ry rz
    limits (-20.0 45.0)
           (-30.0 30.0)
           (-30.0 30.0)
  end
  begin
     id 15 
     name upperneck
     direction 0.0175669 0.998907 0.0433089   
     length 1.5618   
     axis 0 0 0   XYZ
    dof rx ry rz
    limits (-20.0 45.0)
           (-30.0 30.0)
           (-30.0 30.0)
  end
  begin
     id 16
     name head
     direction 0.00754609 0.99997 0.00185367  
     length 1.60579  
     axis 0 0 0   XYZ
    dof rx ry rz
    limits (-20.0 45.0)
           (-30.0 30.0)
           (-30.0 30.0)
  end
  begin
     id 17 
     name lclavicle
     direction 0.885866 0.429166 -0.176231  
     length 3.44967  
     axis 0 0 0   XYZ
    dof ry rz
    limits (-20.0 10.0)
           (0.0 20.0)
  end
  begin
     id 18 
     name lhumerus
     direction 1 -4.48973e-011 -1.90255e-027   
     length 5.20607   
     axis 180 -30 -90   XYZ
    dof rx ry rz
    limits (-60.0 90.0)
           (-90.0 90.0)
           (-90.0 90.0)
  end
  begin
     id 19
     name lradius
     direction 1 -4.48956e-011 9.87925e-027   
     length 3.39961   
     axis 180 -30 -90   XYZ
    dof rx
    limits (-10.0 170.0)
  end
  begin
     id 20
     name lwrist
     direction 1 -4.48985e-011 1.73247e-026   
     length 1.6998   
     axis -9.60847e-015 90 90   XYZ
    dof ry
    limits (-180.0 0.0)
 end
  begin
     id 21 
     name lhand
     direction 1 -4.48798e-011 3.46119e-026   
     length 0.519693   
     axis -2.21073e-014 90 90   XYZ
    dof rx rz
    limits (-90.0 90.0)
           (-45.0 45.0)
  end
  begin
     id 22 
     name lfingers
     direction 1 -4.48938e-011 6.92797e-026   
     length 0.41899   
     axis -4.42155e-014 90 90   XYZ
    dof rx
    limits (0.0 90.0)
  end
  begin
     id 23
     name lthumb
     direction 0.707107 -6.34952e-011 0.707107   
     length 0.601588   
     axis -90 45 6.0103e-014   XYZ
    dof rx rz
    limits (-45.0 45.0)
           (-45.0 45.0)
  end
  begin
     id 24 
     name rclavicle
     direction -0.866736 0.456792 -0.200276   
     length 3.45032  
     axis 0 0 0   XYZ 
    dof ry rz
    limits (-10.0 20.0)
           (-20.0 0.0)
  end
  begin
     id 25 
     name rhumerus
     direction -1 -4.4897e-011 8.65094e-028  
     length 5.32214   
     axis 180 30 90   XYZ
    dof rx ry rz
    limits (-90.0 60.0)
           (-90.0 90.0)
           (-90.0 90.0)
  end
  begin
     id 26 
     name rradius
     direction -1 -4.48987e-011 1.08427e-026   
     length 3.51208   
     axis 180 30 90   XYZ
    dof rx
    limits (-10.0 170.0)
  end
  begin
     id 27 
     name rwrist
     direction -1 -4.48961e-011 1.73222e-026   
     length 1.75604   
     axis -9.60847e-015 -90 -90   XYZ
    dof ry
    limits (-180.0 0.0)
  end
  begin
     id 28
     name rhand
     direction -1 -4.48895e-011 3.46314e-026   
     length 0.586681   
     axis -2.21073e-014 -90 -90   XYZ
    dof rx rz
    limits (-90.0 90.0)
           (-45.0 45.0)
  end
  begin
     id 29
     name rfingers
     direction -1 -4.48968e-011 6.92916e-026   
     length 0.472997   
     axis -4.42155e-014 -90 -90   XYZ
    dof rx
    limits (0.0 90.0)
  end
  begin
     id 30
     name rthumb
     direction -0.707107 -6.34848e-011 0.707107   
     length 0.679133   
     axis -90 -45 -6.0103e-014   XYZ
    dof rx rz
    limits (-45.0 45.0)
           (-45.0 45.0)
  end
:hierarchy
  begin
    root lhipjoint rhipjoint lowerback
    lhipjoint lfemur
    lfemur ltibia
    ltibia lfoot
    lfoot ltoes
    rhipjoint rfemur
    rfemur rtibia
    rtibia rfoot
    rfoot rtoes
    lowerback upperback
    upperback thorax
    thorax lowerneck lclavicle rclavicle
    lowerneck upperneck
    upperneck head
    lclavicle lhumerus
    lhumerus lradius
    lradius lwrist
    lwrist lhand lthumb
    lhand lfingers
    rclavicle rhumerus
    rhumerus rradius
    rradius rwrist
    rwrist rhand rthumb
    rhand rfingers
  end

#!OML:ASF H:\Dans Jumps\Project 1\Capture day 1\Session 1\subject.ASF
:FULLY-SPECIFIED
:DEGREES
61
root -0.219369 16.956 -15.0455 12.3649 -1.98409 -1.57645
lowerback 9.26328 -0.0400774 0.573783
upperback 7.87353 -0.0479167 1.4315
thorax 2.99304 -0.0419005 1.1635
lowerneck -14.497 0.297396 -1.66724
upperneck 30.9595 0.385988 1.53016
head 12.6849 0.167527 0.933229
rclavicle 9.93923e-016 -1.86858e-014
rhumerus -26.7618 -14.7386 -77.2404
rradius 26.0694
rwrist 27.3342
rhand -20.0972 -25.9951
rfingers 7.12502
rthumb 6.24599 -55.883
lclavicle 9.93923e-016 -1.86858e-014
lhumerus -23.8784 1.32254 85.4858
lradius 19.4143
lwrist 8.71035
lhand -27.2823 -5.84135
lfingers 7.12502
lthumb -0.692785 24.1373
rfemur -35.9072 -2.59107 20.4471
rtibia 41.867
rfoot -17.3133 -1.04231
rtoes 7.0902
lfemur -34.8222 8.67586 -19.0405
ltibia 40.7694
lfoot -16.0836 6.69607
ltoes 0.722253
62
root -0.223039 16.9538 -15.0494 12.3493 -1.93046 -1.55383
lowerback 9.28891 -0.0376364 0.568185
upperback 7.88469 -0.0445541 1.42512
thorax 2.99071 -0.0402308 1.15987
lowerneck -14.539 0.2652 -1.7107
upperneck 30.9878 0.344175 1.55843
head 12.7062 0.147959 0.946048
rclavicle -3.57812e-015 -4.37326e-015
rhumerus -26.8751 -14.6298 -77.2518
rradius 26.0929
rwrist 27.2699
rhand -20.1416 -25.9743
rfingers 7.12502
rthumb 6.20309 -55.8634
lclavicle -3.57812e-015 -4.37326e-015
lhumerus -23.9645 1.2167 85.5655
lradius 19.4633
lwrist 8.81775
lhand -27.2512 -5.81247
lfingers 7.12502
lthumb -0.662733 24.1662
rfemur -35.9281 -2.62289 20.4404
rtibia 41.9205
rfoot -17.3289 -1.07078
rtoes 7.06429
lfemur -34.8467 8.67201 -19.0546
ltibia 40.7993
lfoot -16.095 6.65854
ltoes 0.685738
63
root -0.226467 16.9518 -15.053 12.3332 -1.87832 -1.53049
lowerback 9.31468 -0.035677 0.560092
upperback 7.89306 -0.0419581 1.41993
thorax 2.98539 -0.0390788 1.15893
lowerneck -14.5578 0.249562 -1.72654
upperneck 30.995 0.328146 1.55525
head 12.7135 0.13889 0.945438
rclavicle 7.95139e-015 6.16232e-015
rhumerus -26.9927 -14.5375 -77.2552
rradius 26.1115
rwrist 27.2361
rhand -20.1812 -25.9521
rfingers 7.12502
rthumb 6.16492 -55.8424
lclavicle 7.95139e-015 6.16232e-015
lhumerus -24.0511 1.14093 85.6351
lradius 19.5027
lwrist 8.9213
lhand -27.2347 -5.79918
lfingers 7.12502
lthumb -0.646767 24.1796
rfemur -35.9473 -2.65464 20.4318
rtibia 41.9735
rfoot -17.3446 -1.0982
rtoes 7.04493
lfemur -34.8688 8.66687 -19.0704
ltibia 40.8293
lfoot -16.1063 6.62559
ltoes 0.648361
64
root -0.229693 16.9496 -15.0564 12.317 -1.8262 -1.50809
lowerback 9.33884 -0.0343873 0.552943
upperback 7.90087 -0.0402142 1.4153
thorax 2.98038 -0.0383249 1.15807
lowerneck -14.5527 0.251164 -1.71566
upperneck 30.9807 0.338307 1.52318
head 12.7065 0.140718 0.932598
rclavicle -1.98785e-015 -2.5842e-015
rhumerus -27.1091 -14.4638 -77.2534
rradius 26.124
rwrist 27.2267
rhand -20.2215 -25.9259
rfingers 7.12502
rthumb 6.12596 -55.8173
lclavicle -1.98785e-015 -2.5842e-015
lhumerus -24.1362 1.09817 85.6923
lradius 19.5353
lwrist 9.01349
lhand -27.1891 -5.75697
lfingers 7.12502
lthumb -0.602681 24.2219
rfemur -35.9651 -2.68386 20.4225
rtibia 42.0256
rfoot -17.3596 -1.12727
rtoes 7.02839
lfemur -34.8907 8.65923 -19.0856
ltibia 40.8605
lfoot -16.1156 6.5969
ltoes 0.605235
65
root -0.232781 16.9473 -15.0599 12.3042 -1.773 -1.48901
lowerback 9.35765 -0.0340602 0.549016
upperback 7.90895 -0.0396387 1.41175
thorax 2.97861 -0.0380458 1.15661
lowerneck -14.5473 0.253047 -1.70212
upperneck 30.9675 0.349979 1.48522
head 12.6998 0.142744 0.917271
rclavicle -2.78299e-015 6.55989e-015
rhumerus -27.2224 -14.3969 -77.252
rradius 26.1383
rwrist 27.2197
rhand -20.256 -25.9167
rfingers 7.12502
rthumb 6.09266 -55.8091
lclavicle -2.78299e-015 6.55989e-015
lhumerus -24.2168 1.08423 85.7385
lradius 19.5624
lwrist 9.10136
lhand -27.1138 -5.67519
lfingers 7.12502
lthumb -0.530044 24.3039
rfemur -35.9859 -2.70824 20.4152
rtibia 42.0765
rfoot -17.3721 -1.15999
rtoes 7.01436
lfemur -34.9177 8.64703 -19.097
ltibia 40.8948
lfoot -16.1246 6.57111
ltoes 0.571741
66
root -0.235715 16.945 -15.0632 12.2952 -1.72088 -1.47737
lowerback 9.37113 -0.0351749 0.549558
upperback 7.91581 -0.0407921 1.41083
thorax 2.97849 -0.0385096 1.15547
lowerneck -14.5296 0.259329 -1.68769
upperneck 30.9498 0.368473 1.44416
head 12.6886 0.147448 0.901498
rclavicle 2.08724e-015 -1.61016e-014
rhumerus -27.3335 -14.3411 -77.249
rradius 26.1507
rwrist 27.2208
rhand -20.2825 -25.9174
rfingers 7.12502
rthumb 6.06707 -55.8105
lclavicle 2.08724e-015 -1.61016e-014
lhumerus -24.2977 1.08759 85.7785
lradius 19.5804
lwrist 9.19411
lhand -27.1042 -5.66628
lfingers 7.12502
lthumb -0.52076 24.3128
rfemur -36.0084 -2.72537 20.4143
rtibia 42.1251
rfoot -17.3844 -1.19681
rtoes 7.00263
lfemur -34.9496 8.63344 -19.1001
ltibia 40.9333
lfoot -16.1351 6.54758
ltoes 0.544733
67
root -0.238556 16.9427 -15.0665 12.2875 -1.66691 -1.4748
lowerback 9.38289 -0.0392335 0.555244
upperback 7.92292 -0.045602 1.41405
thorax 2.97967 -0.0406936 1.15598
lowerneck -14.5074 0.266179 -1.68144
upperneck 30.9324 0.388156 1.40872
head 12.6765 0.152423 0.889465
rclavicle 5.56597e-015 -4.37326e-015
rhumerus -27.4415 -14.2881 -77.2453
rradius 26.1644
rwrist 27.2201
rhand -20.3044 -25.9243
rfingers 7.12502
rthumb 6.04595 -55.8181
lclavicle 5.56597e-015 -4.37326e-015
lhumerus -24.3777 1.11597 85.8117
lradius 19.5935
lwrist 9.2823
lhand -27.0934 -5.65412
lfingers 7.12502
lthumb -0.510251 24.325
rfemur -36.0299 -2.73612 20.422
rtibia 42.1708
rfoot -17.3953 -1.24055
rtoes 6.98679
lfemur -34.9853 8.61542 -19.0921
ltibia 40.9766
lfoot -16.1462 6.5253
ltoes 0.525008
68
root -0.241233 16.9404 -15.0696 12.2809 -1.61481 -1.48302
lowerback 9.39353 -0.0444706 0.568598
upperback 7.93067 -0.0515623 1.41956
thorax 2.98216 -0.0431899 1.15463
lowerneck -14.4897 0.271973 -1.68049
upperneck 30.9215 0.405325 1.381
head 12.6681 0.156632 0.881032
rclavicle 2.98177e-016 8.54774e-015
rhumerus -27.5464 -14.2514 -77.2415
rradius 26.1765
rwrist 27.2256
rhand -20.3181 -25.9392
rfingers 7.12502
rthumb 6.0327 -55.8333
lclavicle 2.98177e-016 8.54774e-015
lhumerus -24.4556 1.14476 85.8425
lradius 19.5981
lwrist 9.38614
lhand -27.1489 -5.72025
lfingers 7.12502
lthumb -0.563904 24.2587
rfemur -36.049 -2.73828 20.4395
rtibia 42.2128
rfoot -17.4049 -1.28787
rtoes 6.97652
lfemur -35.0228 8.5954 -19.0714
ltibia 41.0238
lfoot -16.1583 6.50779
ltoes 0.514823
69
root -0.243754 16.9381 -15.0728 12.2721 -1.56342 -1.49908
lowerback 9.40968 -0.0509961 0.585819
upperback 7.93877 -0.0589544 1.42784
thorax 2.98203 -0.0463138 1.1541
lowerneck -14.4731 0.278367 -1.68284
upperneck 30.9155 0.422737 1.3579
head 12.6618 0.161122 0.875035
rclavicle 2.88238e-015 -9.74045e-015
rhumerus -27.6497 -14.2323 -77.2341
rradius 26.1836
rwrist 27.2338
rhand -20.3315 -25.9464
rfingers 7.12502
rthumb 6.01982 -55.8409
lclavicle 2.88238e-015 -9.74045e-015
lhumerus -24.5347 1.17829 85.8714
lradius 19.6003
lwrist 9.49506
lhand -27.224 -5.8071
lfingers 7.12502
lthumb -0.636405 24.1717
rfemur -36.0645 -2.73446 20.464
rtibia 42.2523
rfoot -17.4124 -1.33954
rtoes 6.96961
lfemur -35.06 8.56982 -19.0406
ltibia 41.0744
lfoot -16.169 6.49886
ltoes 0.500921
